<mxfile host="app.diagrams.net" modified="2022-11-24T08:05:41.950Z" agent="5.0 (Macintosh; Intel Mac OS X 10_15_7) AppleWebKit/537.36 (KHTML, like Gecko) Chrome/107.0.0.0 Safari/537.36" etag="BRy185_xs2sxTJgJZnsx" version="20.6.0" type="github">
  <diagram id="zp_3S6Bajf4B0arZD00L" name="ページ1">
    <mxGraphModel dx="932" dy="614" grid="1" gridSize="10" guides="1" tooltips="1" connect="1" arrows="1" fold="1" page="1" pageScale="1" pageWidth="827" pageHeight="1169" math="0" shadow="0">
      <root>
        <mxCell id="0" />
        <mxCell id="1" parent="0" />
        <mxCell id="6FzW9IDtcojkeH0w5iIs-1" value="ユーザインターフェース" style="rounded=0;whiteSpace=wrap;html=1;" parent="1" vertex="1">
          <mxGeometry x="110" y="220" width="130" height="50" as="geometry" />
        </mxCell>
        <mxCell id="6FzW9IDtcojkeH0w5iIs-2" value="インフラ" style="rounded=0;whiteSpace=wrap;html=1;" parent="1" vertex="1">
          <mxGeometry x="287.5" y="220" width="126" height="50" as="geometry" />
        </mxCell>
        <mxCell id="6FzW9IDtcojkeH0w5iIs-3" value="テスト" style="rounded=0;whiteSpace=wrap;html=1;" parent="1" vertex="1">
          <mxGeometry x="460" y="220" width="126" height="50" as="geometry" />
        </mxCell>
        <mxCell id="6FzW9IDtcojkeH0w5iIs-6" value="ドメインモデル" style="rounded=0;whiteSpace=wrap;html=1;" parent="1" vertex="1">
          <mxGeometry x="110" y="480" width="304" height="50" as="geometry" />
        </mxCell>
        <mxCell id="6FzW9IDtcojkeH0w5iIs-7" value="オニオンアーキテクチャ層" style="text;html=1;strokeColor=none;fillColor=none;align=left;verticalAlign=middle;whiteSpace=wrap;rounded=0;fontSize=20;" parent="1" vertex="1">
          <mxGeometry x="110" y="140" width="290" height="30" as="geometry" />
        </mxCell>
        <mxCell id="6FzW9IDtcojkeH0w5iIs-8" value="ビジネスロジックに関連した状態と振る舞いの一体化したオブジェクトを配置する&lt;br&gt;他の層への依存関係を持たない" style="text;html=1;strokeColor=none;fillColor=none;align=left;verticalAlign=middle;whiteSpace=wrap;rounded=0;fontSize=12;" parent="1" vertex="1">
          <mxGeometry x="419" y="490" width="296" height="30" as="geometry" />
        </mxCell>
        <mxCell id="6FzW9IDtcojkeH0w5iIs-9" value="ビジネスロジックに関わる振る舞いのロジック、interfaceなどを配置する" style="text;html=1;strokeColor=none;fillColor=none;align=left;verticalAlign=middle;whiteSpace=wrap;rounded=0;fontSize=12;" parent="1" vertex="1">
          <mxGeometry x="419" y="400" width="296" height="30" as="geometry" />
        </mxCell>
        <mxCell id="6FzW9IDtcojkeH0w5iIs-10" value="アプリケーション固有のロジック、制御用のinterfaceなどを配置する" style="text;html=1;strokeColor=none;fillColor=none;align=left;verticalAlign=middle;whiteSpace=wrap;rounded=0;fontSize=12;" parent="1" vertex="1">
          <mxGeometry x="419" y="310" width="296" height="30" as="geometry" />
        </mxCell>
        <mxCell id="6FzW9IDtcojkeH0w5iIs-11" value="ORMやファイルアクセスなど" style="text;html=1;strokeColor=none;fillColor=none;align=left;verticalAlign=middle;whiteSpace=wrap;rounded=0;fontSize=12;" parent="1" vertex="1">
          <mxGeometry x="288" y="190" width="120" height="30" as="geometry" />
        </mxCell>
        <mxCell id="6FzW9IDtcojkeH0w5iIs-12" value="Controller(MVC)やUserSessionなど" style="text;html=1;strokeColor=none;fillColor=none;align=left;verticalAlign=middle;whiteSpace=wrap;rounded=0;fontSize=12;" parent="1" vertex="1">
          <mxGeometry x="110" y="190" width="120" height="30" as="geometry" />
        </mxCell>
        <mxCell id="6FzW9IDtcojkeH0w5iIs-17" value="" style="endArrow=classic;html=1;rounded=0;fontSize=12;" parent="1" edge="1">
          <mxGeometry width="50" height="50" relative="1" as="geometry">
            <mxPoint x="490" y="160" as="sourcePoint" />
            <mxPoint x="460" y="160" as="targetPoint" />
          </mxGeometry>
        </mxCell>
        <mxCell id="6FzW9IDtcojkeH0w5iIs-18" value="依存関係の方向" style="text;html=1;strokeColor=none;fillColor=none;align=left;verticalAlign=middle;whiteSpace=wrap;rounded=0;fontSize=12;" parent="1" vertex="1">
          <mxGeometry x="493" y="146" width="120" height="30" as="geometry" />
        </mxCell>
        <mxCell id="6FzW9IDtcojkeH0w5iIs-5" value="ドメインサービス" style="rounded=0;whiteSpace=wrap;html=1;" parent="1" vertex="1">
          <mxGeometry x="110" y="400" width="304" height="50" as="geometry" />
        </mxCell>
        <mxCell id="6FzW9IDtcojkeH0w5iIs-4" value="アプリケーション&lt;br&gt;サービス" style="rounded=0;whiteSpace=wrap;html=1;" parent="1" vertex="1">
          <mxGeometry x="110" y="310" width="304" height="50" as="geometry" />
        </mxCell>
        <mxCell id="t4e4j9pt8Jl2mQHjbdDI-1" value="" style="endArrow=classic;html=1;rounded=0;fontSize=12;" edge="1" parent="1">
          <mxGeometry width="50" height="50" relative="1" as="geometry">
            <mxPoint x="80" y="220" as="sourcePoint" />
            <mxPoint x="80" y="530" as="targetPoint" />
          </mxGeometry>
        </mxCell>
      </root>
    </mxGraphModel>
  </diagram>
</mxfile>
